# xmcd
# 
# Track frame offsets:
#     183
#     73795
#     101820
#     148408
#     215370
# 
# Disc length: 3204
# 
# Revision: 1
# Processed by: cddbd v1.5.2PL0 Copyright (c) Steve Scherf et al.
# Submitted via: BonkEnc v1.0.8
# 
DISCID=510c8205
DTITLE=菊地雅章 - Melancholy Gil
DYEAR=2000
DGENRE=Contemporary Jazz
TTITLE0=Melancholy Gil
TTITLE1=Nobody's Heart
TTITLE2=Ytviklingssang
TTITLE3=Jackie-ing
TTITLE4=Song Of The Birds
EXTD=
EXTT0=
EXTT1=
EXTT2=
EXTT3=
EXTT4=
PLAYORDER=
